<svg width="29" height="29" viewBox="0 0 29 29" fill="none" xmlns="http://www.w3.org/2000/svg">
<path d="M19.9487 27V22.3987C19.9968 21.8318 19.9142 21.2619 19.7064 20.7268C19.4986 20.1918 19.1704 19.7039 18.7436 19.2955C22.7692 18.8794 27 17.4645 27 10.9728C26.9997 9.31284 26.3111 7.71651 25.0769 6.51423C25.6614 5.06193 25.62 3.45664 24.9615 2.03186C24.9615 2.03186 23.4487 1.61572 19.9487 3.79152C17.0103 3.05296 13.9128 3.05296 10.9744 3.79152C7.47436 1.61572 5.96154 2.03186 5.96154 2.03186C5.30305 3.45664 5.26172 5.06193 5.84615 6.51423C4.60273 7.72542 3.91349 9.33618 3.92308 11.0085C3.92308 17.4527 8.15385 18.8675 12.1795 19.3312C11.7577 19.7354 11.4324 20.2175 11.2248 20.746C11.0171 21.2745 10.9318 21.8376 10.9744 22.3987V27M10.9744 23.4331C4.5641 25.2166 4.5641 20.4607 2 19.8662L10.9744 23.4331Z" stroke="#320555" stroke-width="2.6" stroke-linecap="round" stroke-linejoin="round"/>
</svg>
