<svg width="29" height="29" viewBox="0 0 29 29" fill="none" xmlns="http://www.w3.org/2000/svg">
<path d="M27 24.5307V14.8683C27.0001 14.1961 26.8612 13.5309 26.5919 12.9136C26.3226 12.2962 25.9285 11.7396 25.4337 11.278L16.2175 2.67496C15.7533 2.24151 15.1388 2 14.5 2C13.8612 2 13.2467 2.24151 12.7825 2.67496L3.56625 11.278C3.07153 11.7396 2.67744 12.2962 2.40812 12.9136C2.1388 13.5309 1.99993 14.1961 2 14.8683V24.5307C2 25.1856 2.26339 25.8137 2.73223 26.2768C3.20107 26.7398 3.83696 27 4.5 27H24.5C25.163 27 25.7989 26.7398 26.2678 26.2768C26.7366 25.8137 27 25.1856 27 24.5307Z" stroke="#320555" stroke-width="3" stroke-linecap="round" stroke-linejoin="round"/>
</svg>
